<svg width="1724" height="1117" viewBox="0 0 1724 1117" fill="none" xmlns="http://www.w3.org/2000/svg">
<g opacity="0.02">
<path d="M122.118 1075.2C79.0185 1132.67 43.1019 1175.77 21.5519 1226.05C14.3686 1233.24 0.00195312 1269.15 0.00195312 1290.7V1319.44C0.00195312 1376.9 43.1019 1420 100.569 1420H1623.43C1680.9 1420 1724 1376.9 1724 1319.44V148.553C890.734 292.22 380.718 744.769 122.118 1075.2Z" fill="#414142"/>
<path d="M1623.43 -304H100.569C43.1019 -304 0.00195312 -260.9 0.00195312 -203.433V708.849C301.702 392.783 840.451 47.9829 1659.35 -52.5836C1680.9 -52.5836 1724 -66.9503 1724 -124.417V-203.433C1724 -260.9 1680.9 -304 1623.43 -304Z" fill="#F58220"/>
</g>
</svg>
